<svg id="visual" viewBox="0 0 400 400" width="400" height="400" xmlns="http://www.w3.org/2000/svg" xmlns:xlink="http://www.w3.org/1999/xlink" version="1.1"><g transform="translate(192.79957216468668 206.24651988375172)"><path d="M30 -57.1C39.9 -46.1 49.8 -40.3 54.2 -31.7C58.5 -23 57.3 -11.5 60.9 2.1C64.5 15.7 72.9 31.3 68.4 39.6C63.8 47.8 46.1 48.6 32.6 47.2C19 45.9 9.5 42.5 -3.4 48.4C-16.3 54.3 -32.7 69.6 -42.2 68.6C-51.7 67.6 -54.4 50.3 -55.1 36.1C-55.8 22 -54.4 11 -54 0.3C-53.5 -10.5 -54 -21 -48.3 -26.4C-42.6 -31.8 -30.7 -32.2 -21.6 -43.6C-12.5 -55 -6.3 -77.5 1.9 -80.7C10 -84 20 -68 30 -57.1" fill="#C62368"></path></g></svg>