<svg id="visual" viewBox="0 0 400 400" width="400" height="400" xmlns="http://www.w3.org/2000/svg" xmlns:xlink="http://www.w3.org/1999/xlink" version="1.1"><g transform="translate(198.03008491166767 198.3324395885515)"><path d="M97.1 -150.1C122.1 -135 136.1 -101.8 146.8 -69.6C157.5 -37.4 164.8 -6.3 155.6 18.7C146.3 43.8 120.4 62.8 99.7 86C79 109.3 63.6 136.7 39.6 151.3C15.5 166 -17.2 167.9 -49.4 161.5C-81.6 155.1 -113.4 140.4 -132.4 116.1C-151.5 91.7 -157.9 57.7 -155.3 26.9C-152.6 -3.9 -140.9 -31.5 -129.8 -60.8C-118.7 -90.1 -108.3 -121.2 -86.8 -137.8C-65.2 -154.5 -32.6 -156.8 1.7 -159.4C36 -162.1 72.1 -165.2 97.1 -150.1" fill="#C62368"></path></g></svg>