<svg id="visual" viewBox="0 0 900 450" width="900" height="450" xmlns="http://www.w3.org/2000/svg" xmlns:xlink="http://www.w3.org/1999/xlink" version="1.1"><rect x="0" y="0" width="900" height="450" fill="#CCCCCC"></rect><path d="M0 214L129 263L257 234L386 197L514 188L643 251L771 201L900 251L900 0L771 0L643 0L514 0L386 0L257 0L129 0L0 0Z" fill="#a8a89e"></path><path d="M0 133L129 157L257 220L386 168L514 187L643 129L771 153L900 179L900 0L771 0L643 0L514 0L386 0L257 0L129 0L0 0Z" fill="#758177"></path><path d="M0 106L129 89L257 159L386 105L514 109L643 144L771 128L900 119L900 0L771 0L643 0L514 0L386 0L257 0L129 0L0 0Z" fill="#445b58"></path><path d="M0 53L129 52L257 86L386 123L514 94L643 82L771 76L900 78L900 0L771 0L643 0L514 0L386 0L257 0L129 0L0 0Z" fill="#1a363e"></path><path d="M0 44L129 62L257 39L386 65L514 21L643 58L771 60L900 68L900 0L771 0L643 0L514 0L386 0L257 0L129 0L0 0Z" fill="#001122"></path></svg>