<svg id="visual" viewBox="0 0 900 600" width="900" height="600" xmlns="http://www.w3.org/2000/svg" xmlns:xlink="http://www.w3.org/1999/xlink" version="1.1"><rect x="0" y="0" width="900" height="600" fill="#001220"></rect><defs><linearGradient id="grad1_0" x1="33.3%" y1="0%" x2="100%" y2="100%"><stop offset="20%" stop-color="#f7caca" stop-opacity="1"></stop><stop offset="80%" stop-color="#f7caca" stop-opacity="1"></stop></linearGradient></defs><defs><linearGradient id="grad1_1" x1="33.3%" y1="0%" x2="100%" y2="100%"><stop offset="20%" stop-color="#f7caca" stop-opacity="1"></stop><stop offset="80%" stop-color="#001220" stop-opacity="1"></stop></linearGradient></defs><defs><linearGradient id="grad2_0" x1="0%" y1="0%" x2="66.7%" y2="100%"><stop offset="20%" stop-color="#f7caca" stop-opacity="1"></stop><stop offset="80%" stop-color="#f7caca" stop-opacity="1"></stop></linearGradient></defs><defs><linearGradient id="grad2_1" x1="0%" y1="0%" x2="66.7%" y2="100%"><stop offset="20%" stop-color="#001220" stop-opacity="1"></stop><stop offset="80%" stop-color="#f7caca" stop-opacity="1"></stop></linearGradient></defs><g transform="translate(900, 0)"><path d="M0 324.5C-61.8 318.9 -123.5 313.3 -162.2 281C-201 248.7 -216.7 189.8 -239.9 138.5C-263.1 87.2 -293.8 43.6 -324.5 0L0 0Z" fill="#776579"></path><path d="M0 162.2C-30.9 159.5 -61.8 156.7 -81.1 140.5C-100.5 124.4 -108.3 94.9 -119.9 69.3C-131.5 43.6 -146.9 21.8 -162.2 0L0 0Z" fill="#f7caca"></path></g><g transform="translate(0, 600)"><path d="M0 -324.5C59.4 -317.6 118.9 -310.6 162.2 -281C205.6 -251.4 232.9 -199.1 257.2 -148.5C281.6 -97.9 303 -48.9 324.5 0L0 0Z" fill="#776579"></path><path d="M0 -162.2C29.7 -158.8 59.4 -155.3 81.1 -140.5C102.8 -125.7 116.4 -99.6 128.6 -74.3C140.8 -48.9 151.5 -24.5 162.2 0L0 0Z" fill="#f7caca"></path></g></svg>